<svg xmlns="http://www.w3.org/2000/svg" viewBox="0 0 64 64"><defs><style>.cls-1,.cls-2{fill:none;stroke:#231f20;stroke-miterlimit:10;}.cls-1{stroke-width:3px;}.cls-2{stroke-linecap:round;stroke-width:4px;}.cls-3{fill:#231f20;}</style></defs><title>calendar</title><g id="Layer_2" data-name="Layer 2"><path class="cls-1" d="M13,53H51a2,2,0,0,0,2-1.9V21.69A5.86,5.86,0,0,0,47,16H17a5.86,5.86,0,0,0-6,5.69V51.1A2,2,0,0,0,13,53Z"/><line class="cls-2" x1="24" y1="11" x2="24" y2="15"/><line class="cls-2" x1="40" y1="11" x2="40" y2="15"/><line class="cls-1" x1="11" y1="26" x2="53" y2="26"/><rect class="cls-3" x="28.5" y="31" width="7" height="7"/><rect class="cls-3" x="40" y="31" width="7" height="7"/><rect class="cls-3" x="17" y="31" width="7" height="7"/><rect class="cls-3" x="28.5" y="41" width="7" height="7"/><rect class="cls-3" x="40" y="41" width="7" height="7"/><rect class="cls-3" x="17" y="41" width="7" height="7"/></g></svg>