<svg xmlns="http://www.w3.org/2000/svg" width="21" height="21" viewBox="0 0 21 21">
  <g id="Group_20" data-name="Group 20" transform="translate(-1544.5 -915.5)" opacity="0.7">
    <path id="Path_8" data-name="Path 8" d="M11.952,33.542h18.1a.951.951,0,0,0,.952-.9V18.7A2.785,2.785,0,0,0,28.143,16H13.857A2.785,2.785,0,0,0,11,18.7V32.642A.951.951,0,0,0,11.952,33.542Z" transform="translate(1534 902.458)" fill="none" stroke="#231f20" stroke-miterlimit="10" stroke-width="1"/>
    <line id="Line_10" data-name="Line 10" y2="1.636" transform="translate(1551.19 916)" fill="none" stroke="#231f20" stroke-linecap="round" stroke-miterlimit="10" stroke-width="1"/>
    <line id="Line_11" data-name="Line 11" y2="1.636" transform="translate(1558.809 916)" fill="none" stroke="#231f20" stroke-linecap="round" stroke-miterlimit="10" stroke-width="1"/>
    <path id="Path_9" data-name="Path 9" d="M0,0H20" transform="translate(1545 923.143)" fill="none" stroke="#231f20" stroke-width="1"/>
    <rect id="Rectangle_28" data-name="Rectangle 28" width="3.439" height="3.439" transform="translate(1553.28 925.463)" fill="#231f20"/>
    <rect id="Rectangle_29" data-name="Rectangle 29" width="3.439" height="3.439" transform="translate(1558.613 925.463)" fill="#231f20"/>
    <rect id="Rectangle_30" data-name="Rectangle 30" width="3.439" height="3.439" transform="translate(1547.948 925.463)" fill="#231f20"/>
    <rect id="Rectangle_31" data-name="Rectangle 31" width="3.439" height="3.439" transform="translate(1553.28 930.104)" fill="#231f20"/>
    <rect id="Rectangle_32" data-name="Rectangle 32" width="3.439" height="3.439" transform="translate(1558.613 930.104)" fill="#231f20"/>
    <rect id="Rectangle_33" data-name="Rectangle 33" width="3.439" height="3.439" transform="translate(1547.948 930.104)" fill="#231f20"/>
  </g>
</svg>
