<svg xmlns="http://www.w3.org/2000/svg" width="31.035" height="16.198" viewBox="0 0 31.035 16.198">
  <g id="cloud-01" transform="translate(-8.986 -20.263)">
    <path id="Path_18" data-name="Path 18" d="M37.07,35.461h-23.5a3.86,3.86,0,0,1-3.552-3.936c-.139-2.684,0-6.143,2.028-8.562,3.247-3.857,8.548.119,8.548.119s4.639-1.942,7.084-.119a11.4,11.4,0,0,1,3.227,3.486.954.954,0,0,0,1.047.47c1.305-.311,5.209.139,6.534,2.79a4.254,4.254,0,0,1,0,3.976C38.064,34.56,37.885,35.461,37.07,35.461Z" fill="none" stroke="#fff" stroke-linejoin="round" stroke-width="2"/>
  </g>
</svg>
